<svg xmlns="http://www.w3.org/2000/svg" viewBox="0 0 405.44 323.96"><defs><style>.cls-1{fill:#666;}.cls-2{fill:#ff7bac;}.cls-3{fill:#3fa9f5;}</style></defs><g id="Layer_2" data-name="Layer 2"><g id="Layer_1-2" data-name="Layer 1"><path class="cls-1" d="M272.81,121.23A151.84,151.84,0,0,0,211.13.06c-.92,0-1.83,0-2.76,0A151.73,151.73,0,0,0,164,54.52a152.19,152.19,0,0,1,18.13,69.39c0,1,0,1.93,0,2.9A152.21,152.21,0,0,1,167,193.16a152.19,152.19,0,0,0,19.47,28.08q4.5,5.14,9.43,9.84a149.78,149.78,0,0,1,54.71-36.5c1.71-.65,3.42-1.27,5.16-1.86A151.66,151.66,0,0,0,272,138.21c0-1,0-1.94,0-2.91A121,121,0,0,1,272.81,121.23Zm-61.23,77.82a117.75,117.75,0,0,1-29.38-75.14c0-1,0-2,0-3a117.81,117.81,0,0,1,28-76.47,117.76,117.76,0,0,1,29.39,75.25c0,1,0,1.94,0,2.91a121,121,0,0,1-.83,14.07A117.63,117.63,0,0,1,211.58,199.05Z"/><path class="cls-2" d="M331.85,32.49a151.18,151.18,0,0,0-22.12-26,150,150,0,0,0-26.6,21.21,151.79,151.79,0,0,0-24.08,31.43,152.17,152.17,0,0,1,13.76,62.14,117.73,117.73,0,0,1,32.49-68.3,118.67,118.67,0,0,1-1.93,132,146.86,146.86,0,0,1,36.29,4.57,152.91,152.91,0,0,0-7.81-157Z"/><path class="cls-2" d="M303.18,218.83a114.54,114.54,0,0,0-35.73,5.68,110.71,110.71,0,0,0-13,5.18,115.71,115.71,0,0,0-31.55,21.84,117.17,117.17,0,0,0-14.69,17.34h.2a146.68,146.68,0,0,0,78.29-22.54q6-3.72,11.52-8a149.23,149.23,0,0,0,15.08-13.22q2.58-2.6,5-5.3a114.31,114.31,0,0,0-11.78-.94C305.4,218.85,304.29,218.83,303.18,218.83Z"/><path class="cls-2" d="M272,138.21a151.66,151.66,0,0,1-16.23,54.51,145.59,145.59,0,0,1,27.64-6.49A118.09,118.09,0,0,1,272,138.21Z"/><path class="cls-2" d="M164,54.52a151.77,151.77,0,0,0-23.4-32.39,149.79,149.79,0,0,0-19-17Q118,2.46,114.3,0q-3.66,3-7.13,6.27A152,152,0,0,0,59.05,117.49a151.88,151.88,0,0,0,41.56,104.68q2.27,2.42,4.64,4.72A152.46,152.46,0,0,0,120.74,240c.93,0,1.85,0,2.77,0,2.93,0,5.84-.11,8.71-.32.2-.19.4-.36.6-.56a150.89,150.89,0,0,0,18-19.64q2.26-2.94,4.38-6A150.18,150.18,0,0,0,167,193.16a152.21,152.21,0,0,0,15.12-66.35c0-1,0-1.94,0-2.9A152.19,152.19,0,0,0,164,54.52ZM124.58,198.75c-.5-.53-1-1.05-1.49-1.6a118.55,118.55,0,0,1-6.46-151.6,117.79,117.79,0,0,1,32.21,78.24c0,1,0,2,0,3a117.77,117.77,0,0,1-23.69,71.12C125,198.21,124.79,198.48,124.58,198.75Z"/><path class="cls-3" d="M378.52,205.64a146.76,146.76,0,0,0-75.15-20.73h-.19a147.85,147.85,0,0,0-19.74,1.32,145.59,145.59,0,0,0-27.64,6.49c-1.74.59-3.45,1.21-5.16,1.86a149.78,149.78,0,0,0-54.71,36.5c-.92.95-1.81,1.91-2.69,2.88q-3.45,3.81-6.64,7.85a152,152,0,0,0-10.73-11.53c-.64-.63-1.3-1.25-2-1.87a150.06,150.06,0,0,0-18.71-14.9q-2.12,3.06-4.38,6a150.89,150.89,0,0,1-18,19.64l.72.45-1.32.11c-2.87.21-5.78.32-8.71.32-.92,0-1.84,0-2.77,0a114.53,114.53,0,0,1-58-17.34c3.3-.29,6.65-.44,10-.44a114.86,114.86,0,0,1,24.13,2.55q4.25.9,8.35,2.12-2.37-2.31-4.64-4.72a152,152,0,0,1-24.17-33.82c-1.22,0-2.44,0-3.67,0A147,147,0,0,0,0,207.53a151.15,151.15,0,0,0,34.79,36.73,147.42,147.42,0,0,0,130,23.82c1.07,1.4,2.1,2.82,3.11,4.27A117.86,117.86,0,0,1,187.78,324a117.66,117.66,0,0,1,18.42-52.18c.64-1,1.29-1.95,2-2.91a117.17,117.17,0,0,1,14.69-17.34,115.71,115.71,0,0,1,31.55-21.84,110.71,110.71,0,0,1,13-5.18,114.54,114.54,0,0,1,35.73-5.68c1.11,0,2.22,0,3.33,0a114.66,114.66,0,0,1,40.46,8.6,113.58,113.58,0,0,1-20.57,7.36,115.1,115.1,0,0,1-28.21,3.5h0q-5.57,4.26-11.52,8A147.52,147.52,0,0,1,248,263.46a146.79,146.79,0,0,0,50.2,8.8A146.92,146.92,0,0,0,373.1,251.8c2.16-1.28,4.29-2.62,6.38-4a150.38,150.38,0,0,0,26-21.71A149.75,149.75,0,0,0,378.52,205.64Z"/></g></g></svg>